<?xml version="1.0" standalone="no"?><!DOCTYPE svg PUBLIC "-//W3C//DTD SVG 1.1//EN" "http://www.w3.org/Graphics/SVG/1.1/DTD/svg11.dtd"><svg t="1570454223735" class="icon" viewBox="0 0 1024 1024" version="1.1" xmlns="http://www.w3.org/2000/svg" p-id="10656" xmlns:xlink="http://www.w3.org/1999/xlink" width="200" height="200"><defs><style type="text/css"></style></defs><path d="M251.264 682.666667H85.333333a42.666667 42.666667 0 0 1-42.666666-42.666667V384a42.666667 42.666667 0 0 1 42.666666-42.666667h165.930667l225.877333-184.832a21.333333 21.333333 0 0 1 34.858667 16.512v677.973334a21.333333 21.333333 0 0 1-34.858667 16.512L251.306667 682.666667z m576.725333 176.384l-60.416-60.416A383.061333 383.061333 0 0 0 896 512a383.232 383.232 0 0 0-140.970667-297.301333l60.586667-60.586667A468.309333 468.309333 0 0 1 981.333333 512c0 137.514667-59.136 261.205333-153.344 347.050667z m-151.168-151.168l-60.672-60.672A170.368 170.368 0 0 0 682.666667 512c0-61.013333-32-114.56-80.213334-144.725333l61.397334-61.397334A255.616 255.616 0 0 1 768 512c0 78.592-35.413333 148.906667-91.178667 195.882667z" p-id="10657" fill="#ffffff"></path></svg>