<?xml version="1.0" standalone="no"?><!DOCTYPE svg PUBLIC "-//W3C//DTD SVG 1.1//EN" "http://www.w3.org/Graphics/SVG/1.1/DTD/svg11.dtd"><svg t="1566135111749" class="icon" viewBox="0 0 1024 1024" version="1.1" xmlns="http://www.w3.org/2000/svg" p-id="3730" xmlns:xlink="http://www.w3.org/1999/xlink" width="200" height="200"><defs><style type="text/css"></style></defs><path d="M721.493333 600.746667l61.44 61.44a256 256 0 0 0-2.986666-305.066667 42.666667 42.666667 0 1 0-66.56 53.76 170.666667 170.666667 0 0 1 8.106666 189.866667z" p-id="3731"></path><path d="M896 512a277.76 277.76 0 0 1-75.946667 187.306667l60.586667 60.586666A363.946667 363.946667 0 0 0 981.333333 512a373.333333 373.333333 0 0 0-143.36-288.853333 42.666667 42.666667 0 1 0-54.613333 65.706666A290.133333 290.133333 0 0 1 896 512zM640 519.253333V170.666667a42.666667 42.666667 0 0 0-66.986667-35.413334L384 264.533333zM202.24 322.986667H85.333333a42.666667 42.666667 0 0 0-42.666666 42.666666v292.693334a42.666667 42.666667 0 0 0 42.666666 42.666666h213.333334l273.493333 187.733334A45.226667 45.226667 0 0 0 597.333333 896a42.666667 42.666667 0 0 0 42.666667-42.666667v-92.586666zM200.96 140.373333a42.666667 42.666667 0 0 0-60.586667 60.586667l682.666667 682.666667a42.666667 42.666667 0 0 0 60.586667 0 42.666667 42.666667 0 0 0 0-60.586667z" p-id="3732"></path></svg>